<svg xmlns="http://www.w3.org/2000/svg" xmlns:xlink="http://www.w3.org/1999/xlink" version="1.1" x="0px" y="0px" viewBox="0 0 400 500" enable-background="new 0 0 400 400" xml:space="preserve"><path fill="#000000" d="M344.244,53h-75.313L202.263,1.297L135.671,53h-0.527H57v60.144L1,156.929V400h401V156.753l-57.959-45.227  L344.244,53z M27.733,160.873L57,138.151v38.677L27.733,160.873z M77,122.815v-4.835V73h58.144h7.295H262.17h3.38h59.04l0.225,46  H324v69.924l-122.348,66.582L77,187.595V122.815z M344,136.232l31.769,24.637L344,178.168V136.232z M202.27,26.299L236.7,53h-68.822  L202.27,26.299z M21,380V179.349l180.498,98.649L382,179.454V380H21z"/><text x="0" y="415" fill="#000000" font-size="5px" font-weight="bold" font-family="'Helvetica Neue', Helvetica, Arial-Unicode, Arial, Sans-serif">Created by Niels Gesquiere</text><text x="0" y="420" fill="#000000" font-size="5px" font-weight="bold" font-family="'Helvetica Neue', Helvetica, Arial-Unicode, Arial, Sans-serif">from the Noun Project</text></svg>