<svg xmlns="http://www.w3.org/2000/svg" xmlns:xlink="http://www.w3.org/1999/xlink" version="1.1" x="0px" y="0px" viewBox="0 0 100 125" enable-background="new 0 0 100 100" xml:space="preserve"><path d="M50.5,71c-1.4,0-2.5-1.1-2.5-2.5v-5.7v-5V47.5c0-1.4,1.1-2.5,2.5-2.5s2.5,1.1,2.5,2.5v10.1v5v5.8C53,69.9,51.9,71,50.5,71z   M48.2,6.6c-14.5,0.9-26.1,13-26.4,27.6c-0.1,7.9,3,15.2,8.2,20.4c0.5,0.5,0.8,1,1,1.7l3.1,13.1c0.3,1.1,1.3,1.9,2.4,1.9  c0.3,0,0.7-0.1,1.1-0.2c1.1-0.5,1.6-1.8,1.4-3l-2-8.4l-0.4-1.8c-0.7-2.9-2-5.7-4-8c-1-1.2-2-2.5-2.7-3.9c-2.3-4.2-3.4-9.2-2.7-14.5  C28.5,21,37,12.8,47.4,11.6c13.9-1.5,25.8,9.4,25.8,23c0,4.1-1.1,7.9-2.9,11.2c-0.8,1.4-1.7,2.7-2.7,3.9c-2,2.3-3.3,5-4,8l-0.4,1.8  l-2,8.4c-0.3,1.2,0.3,2.5,1.4,3c0.3,0.2,0.7,0.2,1.1,0.2c1.1,0,2.2-0.8,2.4-1.9l3.1-13.1c0.2-0.6,0.5-1.2,1-1.7  c5-5.1,8.2-12.1,8.2-19.8C78.2,18.5,64.6,5.5,48.2,6.6z M65.5,76.1c0,0.5-0.1,0.9-0.3,1.3c-0.4,0.8-0.7,1.6-0.9,2.5  c-0.7,3-2,8.6-2,8.6C61,91.7,57.9,94,54.4,94h-4.1h-0.5h-0.5h-3.6c-3.5,0-6.7-2.4-7.9-5.7l-0.1-0.4l-1.8-7.8  C35.5,79,35.1,78,34.7,77c-0.1-0.3-0.2-0.5-0.2-0.9c0.1-1.3,1.3-2.1,2.6-2.1h25.7C64.2,74,65.4,74.7,65.5,76.1z M59.5,79H48.7  c-4.2,0-7.2,3.9-6.3,7.9c0.6,1.3,1.8,2.1,3.2,2.1h4.1h0.5h0.5h3.6c1.4,0,2.7-0.8,3.2-2.1L59.5,79z"/><text x="0" y="115" fill="#000000" font-size="5px" font-weight="bold" font-family="'Helvetica Neue', Helvetica, Arial-Unicode, Arial, Sans-serif">Created by Eli Revzin</text><text x="0" y="120" fill="#000000" font-size="5px" font-weight="bold" font-family="'Helvetica Neue', Helvetica, Arial-Unicode, Arial, Sans-serif">from the Noun Project</text></svg>