<svg xmlns="http://www.w3.org/2000/svg" xmlns:xlink="http://www.w3.org/1999/xlink" version="1.1" x="0px" y="0px" viewBox="0 0 100 125" style="enable-background:new 0 0 100 100;" xml:space="preserve"><g><path d="M89.611,10.653h-80c-3.309,0-6,2.691-6,6v50c0,3.309,2.691,6,6,6h1v-2v-2v-9h-3v-43c0-1.103,0.896-2,2-2h80   c1.104,0,2,0.897,2,2v43h-20v9v2v2h18c3.309,0,6-2.691,6-6v-50C95.611,13.345,92.92,10.653,89.611,10.653z"/><path d="M66.674,31.653H29.736c-1.693,0-3.125,1.374-3.125,3v8h4v-7h35v25v9v2v2v6h-25v4c0,1.535-0.59,2.936-1.547,4h27.672   c1.646,0,2.875-1.848,2.875-3.5v-10.5v-2v-2v-9v-26C69.611,32.999,68.293,31.653,66.674,31.653z M48.443,84.905   c-0.942,0-1.707-0.823-1.707-1.84c0-1.016,0.766-1.84,1.707-1.84c0.943,0,1.708,0.824,1.707,1.84   C50.15,84.082,49.386,84.905,48.443,84.905z"/><path d="M36.611,45.142c-0.566-0.304-1.215-0.488-1.922-0.488h-3.078h-1h-4h-1h-1H16.61c-0.73,0-1.408,0.195-1.999,0.518   c-1.188,0.649-2,1.857-2,3.327v11.155v9v2v2v11.001c0,2.2,1.799,3.999,3.999,3.999h10.303h2.823h4.953c1.002,0,1.894-0.386,2.58-1   c0.82-0.734,1.342-1.801,1.342-2.999v-5.001v-1v-5v-2v-2v-9V48.498C38.611,47.005,37.809,45.783,36.611,45.142z M26.8,84.172   c-0.21,0.299-0.501,0.522-0.841,0.639c-0.163,0.056-0.334,0.095-0.516,0.095c-0.199,0-0.388-0.044-0.566-0.111   c-0.662-0.253-1.141-0.927-1.141-1.729c0-0.57,0.246-1.074,0.625-1.412c0.078-0.069,0.161-0.131,0.25-0.185   c0.247-0.15,0.529-0.243,0.832-0.243c0.058,0,0.112,0.013,0.168,0.019c0.347,0.037,0.66,0.183,0.914,0.409   c0.029,0.025,0.059,0.049,0.086,0.076c0.33,0.336,0.54,0.809,0.539,1.336C27.15,83.482,27.018,83.863,26.8,84.172z M34.611,59.653   v9v2v2v5v1h-4h-4h-1h-1h-8v-6v-2v-2v-9v-11h8h1h1h4h1h3V59.653z"/><path d="M73.611,81.653c-1-3-2-1-2-1v2v0.5c0,1.111,0,3.5,0,3.5c3,0,9,0,9,0s0,0,0-1S74.611,84.653,73.611,81.653z"/></g><text x="0" y="115" fill="#000000" font-size="5px" font-weight="bold" font-family="'Helvetica Neue', Helvetica, Arial-Unicode, Arial, Sans-serif">Created by Roman Kovbasyuk</text><text x="0" y="120" fill="#000000" font-size="5px" font-weight="bold" font-family="'Helvetica Neue', Helvetica, Arial-Unicode, Arial, Sans-serif">from the Noun Project</text></svg>